<svg width="28" height="28" viewBox="0 0 28 28" fill="none" xmlns="http://www.w3.org/2000/svg">
<g clip-path="url(#clip0_2600_10231)">
<path d="M14 27.5C21.4558 27.5 27.5 21.4558 27.5 14C27.5 6.54416 21.4558 0.5 14 0.5C6.54416 0.5 0.5 6.54416 0.5 14C0.5 21.4558 6.54416 27.5 14 27.5Z" fill="#006D5B" stroke="#006D5B"/>
<path d="M21.3671 8.84124C20.9415 8.41541 20.4361 8.07761 19.8799 7.84714C19.3237 7.61667 18.7275 7.49805 18.1255 7.49805C17.5234 7.49805 16.9272 7.61667 16.371 7.84714C15.8148 8.07761 15.3094 8.41541 14.8838 8.84124L14.0005 9.72457L13.1171 8.84124C12.2574 7.98149 11.0913 7.49849 9.87543 7.49849C8.65957 7.49849 7.49351 7.98149 6.63376 8.84124C5.77402 9.70098 5.29102 10.8671 5.29102 12.0829C5.29102 13.2988 5.77402 14.4649 6.63376 15.3246L7.51709 16.2079L14.0005 22.6913L20.4838 16.2079L21.3671 15.3246C21.793 14.899 22.1308 14.3936 22.3612 13.8374C22.5917 13.2812 22.7103 12.685 22.7103 12.0829C22.7103 11.4809 22.5917 10.8847 22.3612 10.3285C22.1308 9.77222 21.793 9.26687 21.3671 8.84124Z" fill="white"/>
</g>
<defs>
<clipPath id="clip0_2600_10231">
<rect width="28" height="28" fill="white"/>
</clipPath>
</defs>
</svg>
