<svg width="143" height="75" viewBox="0 0 143 75" fill="none" xmlns="http://www.w3.org/2000/svg">
<path d="M14.4155 43.6121H28.6088V53.8007H3.87365V12.5754H14.4155V43.6121ZM65.723 48.5003C61.5612 52.6228 56.4572 54.6841 50.4108 54.6841C44.3644 54.6841 39.2407 52.6228 35.0397 48.5003C30.8779 44.3385 28.797 39.2344 28.797 33.188C28.797 27.1417 30.8779 22.0572 35.0397 17.9347C39.2407 13.7729 44.3644 11.692 50.4108 11.692C56.4572 11.692 61.5612 13.7729 65.723 17.9347C69.9241 22.0572 72.0246 27.1417 72.0246 33.188C72.0246 39.2344 69.9241 44.3385 65.723 48.5003ZM42.4602 41.2564C44.5804 43.3373 47.2306 44.3777 50.4108 44.3777C53.591 44.3777 56.2412 43.3373 58.3614 41.2564C60.4815 39.1362 61.5416 36.4468 61.5416 33.188C61.5416 29.9293 60.4815 27.2594 58.3614 25.1786C56.2412 23.0584 53.591 21.9983 50.4108 21.9983C47.2306 21.9983 44.5804 23.0584 42.4602 25.1786C40.3401 27.2594 39.28 29.9293 39.28 33.188C39.28 36.4468 40.3401 39.1362 42.4602 41.2564ZM84.9153 53.8007L71.6055 12.5754H83.1485L91.158 40.9619L99.2264 12.5754H110.769L97.4596 53.8007H84.9153ZM124.553 43.9066H140.513V53.8007H114.011V12.5754H140.218V22.4106H124.553V28.1232H138.746V37.8406H124.553V43.9066Z" fill="#FF007A"/>
<rect x="33" y="16" width="35" height="35" rx="17.5" fill="#FF007A"/>
<path d="M62.5233 23.5308C61.7997 22.8069 60.9406 22.2327 59.995 21.8409C59.0495 21.4491 58.036 21.2474 57.0125 21.2474C55.9889 21.2474 54.9754 21.4491 54.0299 21.8409C53.0843 22.2327 52.2252 22.8069 51.5016 23.5308L50 25.0325L48.4983 23.5308C47.0367 22.0693 45.0544 21.2482 42.9875 21.2482C40.9205 21.2482 38.9382 22.0693 37.4766 23.5308C36.0151 24.9924 35.194 26.9747 35.194 29.0417C35.194 31.1086 36.0151 33.0909 37.4766 34.5525L38.9783 36.0542L50 47.0758L61.0216 36.0542L62.5233 34.5525C63.2472 33.8289 63.8215 32.9698 64.2133 32.0242C64.6051 31.0787 64.8067 30.0652 64.8067 29.0417C64.8067 28.0181 64.6051 27.0046 64.2133 26.0591C63.8215 25.1135 63.2472 24.2544 62.5233 23.5308Z" fill="white"/>
</svg>
