<svg width="143" height="75" viewBox="0 0 143 75" fill="none" xmlns="http://www.w3.org/2000/svg">
<path d="M14.4159 43.6125H28.6092V53.8011H3.87402V12.5758H14.4159V43.6125ZM65.7234 48.5007C61.5616 52.6232 56.4576 54.6845 50.4112 54.6845C44.3648 54.6845 39.2411 52.6232 35.0401 48.5007C30.8783 44.3389 28.7974 39.2348 28.7974 33.1884C28.7974 27.1421 30.8783 22.0576 35.0401 17.9351C39.2411 13.7733 44.3648 11.6924 50.4112 11.6924C56.4576 11.6924 61.5616 13.7733 65.7234 17.9351C69.9245 22.0576 72.025 27.1421 72.025 33.1884C72.025 39.2348 69.9245 44.3389 65.7234 48.5007ZM42.4606 41.2568C44.5808 43.3377 47.231 44.3781 50.4112 44.3781C53.5914 44.3781 56.2416 43.3377 58.3618 41.2568C60.4819 39.1366 61.542 36.4472 61.542 33.1884C61.542 29.9297 60.4819 27.2598 58.3618 25.179C56.2416 23.0588 53.5914 21.9987 50.4112 21.9987C47.231 21.9987 44.5808 23.0588 42.4606 25.179C40.3405 27.2598 39.2804 29.9297 39.2804 33.1884C39.2804 36.4472 40.3405 39.1366 42.4606 41.2568ZM84.9157 53.8011L71.6059 12.5758H83.1489L91.1584 40.9623L99.2268 12.5758H110.769L97.46 53.8011H84.9157ZM124.553 43.907H140.513V53.8011H114.011V12.5758H140.218V22.411H124.553V28.1236H138.746V37.841H124.553V43.907Z" fill="#006D5B"/>
<path d="M68 33.5C68 23.835 60.165 16 50.5 16C40.835 16 33 23.835 33 33.5C33 43.165 40.835 51 50.5 51C60.165 51 68 43.165 68 33.5Z" fill="#006D5B"/>
<path d="M62.5236 23.5305C61.8 22.8066 60.9409 22.2324 59.9953 21.8406C59.0498 21.4488 58.0363 21.2471 57.0128 21.2471C55.9892 21.2471 54.9757 21.4488 54.0302 21.8406C53.0846 22.2324 52.2255 22.8066 51.5019 23.5305L50.0003 25.0322L48.4986 23.5305C47.037 22.069 45.0547 21.2479 42.9878 21.2479C40.9208 21.2479 38.9385 22.069 37.4769 23.5305C36.0154 24.9921 35.1943 26.9744 35.1943 29.0414C35.1943 31.1083 36.0154 33.0906 37.4769 34.5522L38.9786 36.0539L50.0003 47.0755L61.0219 36.0539L62.5236 34.5522C63.2475 33.8286 63.8218 32.9695 64.2136 32.0239C64.6054 31.0784 64.807 30.0649 64.807 29.0414C64.807 28.0178 64.6054 27.0043 64.2136 26.0588C63.8218 25.1132 63.2475 24.2541 62.5236 23.5305Z" fill="white"/>
</svg>
