<svg width="28" height="28" viewBox="0 0 28 28" fill="none" xmlns="http://www.w3.org/2000/svg">
<circle cx="14" cy="14" r="13.5" fill="#FF007A" stroke="#FF007A"/>
<path d="M21.3667 8.84167C20.9411 8.41584 20.4357 8.07804 19.8795 7.84757C19.3233 7.6171 18.7271 7.49848 18.1251 7.49848C17.523 7.49848 16.9268 7.6171 16.3706 7.84757C15.8144 8.07804 15.309 8.41584 14.8834 8.84167L14.0001 9.725L13.1167 8.84167C12.257 7.98192 11.0909 7.49892 9.87506 7.49892C8.6592 7.49892 7.49314 7.98192 6.63339 8.84167C5.77365 9.70141 5.29065 10.8675 5.29065 12.0833C5.29065 13.2992 5.77365 14.4653 6.63339 15.325L7.51672 16.2083L14.0001 22.6917L20.4834 16.2083L21.3667 15.325C21.7926 14.8994 22.1304 14.394 22.3608 13.8378C22.5913 13.2816 22.7099 12.6854 22.7099 12.0833C22.7099 11.4813 22.5913 10.8851 22.3608 10.3289C22.1304 9.77265 21.7926 9.2673 21.3667 8.84167Z" fill="white"/>
</svg>
